<svg xmlns="http://www.w3.org/2000/svg" viewBox="0 0 24 24" fill="currentColor">
  <path d="M20 7h-1.209A4.92 4.92 0 0019 5.5C19 3.57 17.43 2 15.5 2c-1.622 0-2.705 1.482-3.404 3.085C11.407 3.57 10.269 2 8.5 2 6.57 2 5 3.57 5 5.5c0 .596.079 1.089.209 1.5H4c-1.103 0-2 .897-2 2v2c0 1.103.897 2 2 2v7c0 1.103.897 2 2 2h12c1.103 0 2-.897 2-2v-7c1.103 0 2-.897 2-2V9c0-1.103-.897-2-2-2zM15.5 4c.827 0 1.5.673 1.5 1.5S16.327 7 15.5 7h-2.086c.486-1.404 1.025-3 2.086-3zM7 5.5C7 4.673 7.673 4 8.5 4c1.062 0 1.601 1.596 2.086 3H8.5C7.673 7 7 6.327 7 5.5zM18 20H6v-7h5v2h2v-2h5v7zm2-9H4V9h16v2z"/>
</svg>
