<svg width="24" height="24" viewBox="0 0 24 24" fill="none" xmlns="http://www.w3.org/2000/svg">
<path d="M16.192 19.5C15.2773 19.5 14.494 19.175 13.842 18.525C13.19 17.875 12.8643 17.0937 12.865 16.181C12.8657 15.2684 13.191 14.4874 13.841 13.838C14.491 13.1887 15.2723 12.8647 16.185 12.866C17.0977 12.8674 17.8783 13.191 18.527 13.837C19.1757 14.483 19.5 15.2617 19.5 16.173C19.5 16.5424 19.4433 16.8917 19.33 17.221C19.218 17.5504 19.0573 17.8524 18.848 18.127L21.281 20.573C21.3297 20.615 21.3663 20.667 21.391 20.729C21.415 20.7917 21.427 20.8514 21.427 20.908C21.427 20.9647 21.4147 21.024 21.39 21.086C21.3653 21.148 21.3287 21.2067 21.28 21.262C21.2407 21.304 21.191 21.338 21.131 21.364C21.071 21.39 21.0093 21.4027 20.946 21.402C20.8747 21.402 20.808 21.3894 20.746 21.364C20.684 21.338 20.6263 21.304 20.573 21.262L18.141 18.854C17.8663 19.0627 17.5647 19.2227 17.236 19.334C16.9073 19.4454 16.5593 19.5007 16.192 19.5ZM5.808 19.52C4.898 19.52 4.11933 19.1954 3.472 18.546C2.824 17.8974 2.5 17.1064 2.5 16.173C2.5 15.2637 2.824 14.485 3.472 13.837C4.11933 13.189 4.898 12.865 5.808 12.865C6.74133 12.865 7.53233 13.189 8.181 13.837C8.82967 14.485 9.154 15.2637 9.154 16.173C9.154 17.1064 8.82967 17.8974 8.181 18.546C7.53233 19.1947 6.74133 19.52 5.808 19.52ZM16.192 18.519C16.8267 18.519 17.37 18.2944 17.822 17.845C18.274 17.3957 18.5 16.8384 18.5 16.173C18.5 15.5384 18.274 14.995 17.822 14.543C17.37 14.091 16.8267 13.865 16.192 13.865C15.5267 13.865 14.9693 14.091 14.52 14.543C14.0707 14.995 13.846 15.5384 13.846 16.173C13.846 16.8384 14.0707 17.3957 14.52 17.845C14.9693 18.2944 15.5267 18.519 16.192 18.519ZM5.808 9.17304C4.898 9.17304 4.11933 8.84871 3.472 8.20004C2.824 7.55138 2.5 6.76038 2.5 5.82704C2.5 4.91771 2.824 4.13904 3.472 3.49104C4.11933 2.84304 4.898 2.51904 5.808 2.51904C6.74133 2.51904 7.53233 2.84304 8.181 3.49104C8.82967 4.13904 9.154 4.91771 9.154 5.82704C9.154 6.76038 8.82967 7.55138 8.181 8.20004C7.53233 8.84871 6.74133 9.17304 5.808 9.17304ZM16.192 9.17304C15.2587 9.17304 14.4677 8.84871 13.819 8.20004C13.1703 7.55138 12.846 6.76038 12.846 5.82704C12.846 4.91704 13.1703 4.13838 13.819 3.49104C14.4677 2.84304 15.2587 2.51904 16.192 2.51904C17.102 2.51904 17.8807 2.84304 18.528 3.49104C19.176 4.13904 19.5 4.91771 19.5 5.82704C19.5 6.76038 19.176 7.55138 18.528 8.20004C17.8807 8.84871 17.102 9.17304 16.192 9.17304Z" fill="#9CA3AF"/>
</svg>
