<svg width="24" height="24" viewBox="0 0 24 24" fill="none" xmlns="http://www.w3.org/2000/svg">
<path d="M4 21C3.71667 21 3.47933 20.904 3.288 20.712C3.09667 20.52 3.00067 20.2827 3 20V14C3 13.7167 3.096 13.4793 3.288 13.288C3.48 13.0967 3.71733 13.0007 4 13C4.28267 12.9993 4.52033 13.0953 4.713 13.288C4.90567 13.4807 5.00133 13.718 5 14V17.6L17.6 5H14C13.7167 5 13.4793 4.904 13.288 4.712C13.0967 4.52 13.0007 4.28267 13 4C12.9993 3.71733 13.0953 3.48 13.288 3.288C13.4807 3.096 13.718 3 14 3H20C20.2833 3 20.521 3.096 20.713 3.288C20.905 3.48 21.0007 3.71733 21 4V10C21 10.2833 20.904 10.521 20.712 10.713C20.52 10.905 20.2827 11.0007 20 11C19.7173 10.9993 19.48 10.9033 19.288 10.712C19.096 10.5207 19 10.2833 19 10V6.4L6.4 19H10C10.2833 19 10.521 19.096 10.713 19.288C10.905 19.48 11.0007 19.7173 11 20C10.9993 20.2827 10.9033 20.5203 10.712 20.713C10.5207 20.9057 10.2833 21.0013 10 21H4Z" fill="#9CA3AF"/>
</svg>
