<svg width="24" height="24" viewBox="0 0 24 24" fill="none" xmlns="http://www.w3.org/2000/svg">
<path d="M12.8801 7.01698L17.6541 8.28798M11.8581 10.813L14.2441 11.449M11.9771 17.966L12.9311 18.221C15.6311 18.941 16.9811 19.3 18.0451 18.689C19.1081 18.079 19.4701 16.736 20.1931 14.052L21.2161 10.255C21.9401 7.56998 22.3011 6.22799 21.6871 5.16999C21.0731 4.11199 19.7241 3.75298 17.0231 3.03398L16.0691 2.77898C13.3691 2.05898 12.0191 1.69998 10.9561 2.31098C9.89211 2.92099 9.53011 4.26398 8.80611 6.94798L7.78411 10.745C7.06011 13.43 6.69811 14.772 7.31311 15.83C7.92711 16.887 9.27711 17.247 11.9771 17.966Z" stroke="#9CA3AF" stroke-width="1.5" stroke-linecap="round"/>
<path d="M12 20.9459L11.048 21.2059C8.35403 21.9389 7.00803 22.3059 5.94603 21.6829C4.88603 21.0609 4.52403 19.6919 3.80303 16.9549L2.78203 13.0829C2.06003 10.3459 1.69903 8.97691 2.31203 7.89891C2.84203 6.96591 4.00003 6.99991 5.50003 6.99991" stroke="#9CA3AF" stroke-width="1.5" stroke-linecap="round"/>
</svg>
