<svg width="24" height="24" viewBox="0 0 24 24" fill="none" xmlns="http://www.w3.org/2000/svg">
<path d="M16.5 4H8C6.93913 4 5.92172 4.42143 5.17157 5.17157C4.42143 5.92172 4 6.93913 4 8V16.5C4 17.5609 4.42143 18.5783 5.17157 19.3284C5.92172 20.0786 6.93913 20.5 8 20.5H14.843C15.3684 20.5 15.8887 20.3965 16.3741 20.1954C16.8595 19.9943 17.3005 19.6996 17.672 19.328L19.328 17.672C19.6996 17.3005 19.9943 16.8595 20.1954 16.3741C20.3965 15.8887 20.5 15.3684 20.5 14.843V8C20.5 6.93913 20.0786 5.92172 19.3284 5.17157C18.5783 4.42143 17.5609 4 16.5 4Z" stroke="#9CA3AF" stroke-width="1.5" stroke-linecap="round" stroke-linejoin="round"/>
<path d="M20.5 14H17C16.2044 14 15.4413 14.3161 14.8787 14.8787C14.3161 15.4413 14 16.2044 14 17V20.5M8 8H15.5M8 12H13" stroke="#9CA3AF" stroke-width="1.5" stroke-linecap="round" stroke-linejoin="round"/>
</svg>
