<svg width="20" height="20" viewBox="0 0 20 20" fill="none" xmlns="http://www.w3.org/2000/svg">
<path d="M3.75 14.375H16.25V2.5H5C4.66848 2.5 4.35054 2.6317 4.11612 2.86612C3.8817 3.10054 3.75 3.41848 3.75 3.75V14.375ZM5 1.25H16.875C17.0408 1.25 17.1997 1.31585 17.3169 1.43306C17.4342 1.55027 17.5 1.70924 17.5 1.875V15C17.5 15.1658 17.4342 15.3247 17.3169 15.4419C17.1997 15.5592 17.0408 15.625 16.875 15.625H3.125L2.5 16.7488V3.75C2.5 3.08696 2.76339 2.45107 3.23223 1.98223C3.70107 1.51339 4.33696 1.25 5 1.25Z" fill="#6B7280"/>
<path d="M4.6875 15.625C4.43886 15.625 4.2004 15.7238 4.02459 15.8996C3.84877 16.0754 3.75 16.3139 3.75 16.5625C3.75 16.8111 3.84877 17.0496 4.02459 17.2254C4.2004 17.4012 4.43886 17.5 4.6875 17.5H16.25V15.625H4.6875ZM4.6875 14.375H17.5V17.5C17.5 17.8315 17.3683 18.1495 17.1339 18.3839C16.8995 18.6183 16.5815 18.75 16.25 18.75H4.6875C4.10734 18.75 3.55094 18.5195 3.1407 18.1093C2.73047 17.6991 2.5 17.1427 2.5 16.5625C2.5 15.9823 2.73047 15.4259 3.1407 15.0157C3.55094 14.6055 4.10734 14.375 4.6875 14.375ZM7.5 2.5V7.4L9.375 5.9L11.25 7.4V2.5H7.5ZM6.25 1.25H12.5V8.7C12.4998 8.81761 12.4665 8.93278 12.4038 9.03228C12.3411 9.13178 12.2516 9.21158 12.1456 9.2625C12.0396 9.31341 11.9214 9.33339 11.8045 9.32012C11.6876 9.30685 11.5769 9.26089 11.485 9.1875L9.375 7.5L7.265 9.1875C7.1731 9.26089 7.06236 9.30685 6.9455 9.32012C6.82865 9.33339 6.71042 9.31341 6.60441 9.2625C6.49839 9.21158 6.4089 9.13178 6.34621 9.03228C6.28351 8.93278 6.25017 8.81761 6.25 8.7V1.25Z" fill="#6B7280"/>
</svg>
