<svg width="16" height="16" viewBox="0 0 16 16" fill="none" xmlns="http://www.w3.org/2000/svg">
<path d="M5.62059 10.3827L2.16992 13.8334M11.9606 4.05069L13.5886 5.67869C13.6723 5.76192 13.7369 5.86236 13.7779 5.97306C13.8189 6.08376 13.8353 6.20205 13.8259 6.31972C13.8166 6.43739 13.7818 6.55162 13.7239 6.65448C13.666 6.75733 13.5864 6.84636 13.4906 6.91536L12.3193 7.07002C12.084 7.10232 11.8647 7.20773 11.6926 7.37136C11.2126 7.83536 10.7239 8.32336 9.90992 9.12936C9.76992 9.27069 9.67126 9.44803 9.62526 9.64203L8.99859 12.1567C8.9458 12.278 8.86423 12.3845 8.76095 12.4672C8.65767 12.5498 8.5358 12.606 8.4059 12.6309C8.276 12.6558 8.14199 12.6486 8.01549 12.61C7.88898 12.5714 7.7738 12.5025 7.67992 12.4094L5.65326 10.3747L3.61859 8.34803C3.52542 8.25415 3.45655 8.13896 3.41795 8.01246C3.37935 7.88595 3.37219 7.75194 3.39708 7.62204C3.42197 7.49214 3.47816 7.37027 3.56079 7.26699C3.64342 7.16372 3.74998 7.08215 3.87126 7.02936L6.36926 6.38669C6.56215 6.33326 6.73862 6.23242 6.88259 6.09336C7.80192 5.19003 8.13592 4.85669 8.65592 4.29469C8.81126 4.12802 8.91126 3.91802 8.94126 3.69269L9.09592 2.50402C9.16497 2.40819 9.25406 2.32854 9.35701 2.27062C9.45995 2.21271 9.57428 2.17791 9.69203 2.16864C9.80979 2.15938 9.92815 2.17588 10.0389 2.21699C10.1496 2.2581 10.2501 2.32283 10.3333 2.40669L11.9606 4.05069Z" stroke="#9CA3AF" stroke-width="1.5" stroke-linecap="round" stroke-linejoin="round"/>
</svg>
