<svg width="24" height="24" viewBox="0 0 24 24" fill="none" xmlns="http://www.w3.org/2000/svg">
<path d="M11.2501 8.25C11.2501 8.05109 11.3291 7.86032 11.4698 7.71967C11.6104 7.57902 11.8012 7.5 12.0001 7.5H15.7501C15.949 7.5 16.1398 7.57902 16.2804 7.71967C16.4211 7.86032 16.5001 8.05109 16.5001 8.25V12C16.5001 12.1989 16.4211 12.3897 16.2804 12.5303C16.1398 12.671 15.949 12.75 15.7501 12.75C15.5512 12.75 15.3604 12.671 15.2198 12.5303C15.0791 12.3897 15.0001 12.1989 15.0001 12V10.0605L11.0311 14.031C10.9614 14.1007 10.8786 14.156 10.7875 14.1938C10.6964 14.2315 10.5987 14.2509 10.5001 14.2509C10.4015 14.2509 10.3038 14.2315 10.2127 14.1938C10.1216 14.156 10.0388 14.1007 9.96911 14.031C9.89938 13.9613 9.84406 13.8785 9.80632 13.7874C9.76859 13.6963 9.74916 13.5986 9.74916 13.5C9.74916 13.4014 9.76859 13.3037 9.80632 13.2126C9.84406 13.1215 9.89938 13.0387 9.96911 12.969L13.9396 9H12.0001C11.8012 9 11.6104 8.92098 11.4698 8.78033C11.3291 8.63968 11.2501 8.44891 11.2501 8.25ZM6.19961 5.538C6.45256 4.79736 6.93091 4.15442 7.56761 3.69928C8.20431 3.24415 8.96746 2.99963 9.75011 3H17.2501C18.2447 3 19.1985 3.39509 19.9018 4.09835C20.605 4.80161 21.0001 5.75544 21.0001 6.75V14.25C21.0001 15.897 19.9381 17.295 18.4621 17.8005V18.3465C18.4621 18.849 18.2866 19.491 17.8741 20.0205C17.4406 20.5785 16.7521 21 15.8086 21H7.15361C6.60698 21.0038 6.06505 20.8989 5.55931 20.6914C5.05358 20.4839 4.59412 20.178 4.20766 19.7914C3.82119 19.4048 3.51542 18.9452 3.30812 18.4394C3.10082 17.9336 2.99612 17.3916 3.00011 16.845V8.1945C3.00011 7.371 3.29561 6.6855 3.81911 6.21C4.32911 5.7465 4.99661 5.5395 5.65361 5.5395L6.19961 5.538ZM6.00011 7.038H5.65511C5.35346 7.02448 5.0578 7.12517 4.82711 7.32C4.65011 7.4805 4.50011 7.746 4.50011 8.193V16.8465C4.50011 18.336 5.66411 19.5015 7.15511 19.5015H15.8086C16.2571 19.5015 16.5196 19.32 16.6906 19.0995C16.8546 18.8815 16.9487 18.619 16.9606 18.3465V18H9.75011C8.75555 18 7.80172 17.6049 7.09846 16.9016C6.3952 16.1984 6.00011 15.2446 6.00011 14.25V7.038ZM9.75011 4.5C9.15337 4.5 8.58108 4.73705 8.15912 5.15901C7.73716 5.58097 7.50011 6.15326 7.50011 6.75V14.25C7.50011 14.8467 7.73716 15.419 8.15912 15.841C8.58108 16.2629 9.15337 16.5 9.75011 16.5H17.2501C17.8468 16.5 18.4191 16.2629 18.8411 15.841C19.2631 15.419 19.5001 14.8467 19.5001 14.25V6.75C19.5001 6.15326 19.2631 5.58097 18.8411 5.15901C18.4191 4.73705 17.8468 4.5 17.2501 4.5H9.75011Z" fill="#9CA3AF"/>
</svg>
