<svg width="24" height="24" viewBox="0 0 24 24" fill="none" xmlns="http://www.w3.org/2000/svg">
<path d="M12 8V12L13.5 13.5" stroke="#9CA3AF" stroke-width="1.5" stroke-linecap="round" stroke-linejoin="round"/>
<path d="M19.5449 16.453C21.1819 17.337 21.9999 17.78 21.9999 18.5C21.9999 19.22 21.1819 19.663 19.5449 20.547L18.4309 21.148C17.1739 21.827 16.5459 22.166 16.2439 21.92C15.5039 21.315 16.6569 19.756 16.9399 19.204C17.2279 18.644 17.2219 18.346 16.9399 17.796C16.6569 17.244 15.5039 15.685 16.2439 15.08C16.5459 14.834 17.1739 15.173 18.4309 15.852L19.5449 16.453Z" stroke="#9CA3AF" stroke-width="1.5"/>
<path d="M13.026 21.948C12.6887 21.982 12.3467 21.9993 12 22C6.477 22 2 17.523 2 12C2 6.477 6.477 2 12 2C17.523 2 22 6.477 22 12C21.9987 12.6867 21.932 13.3533 21.8 14" stroke="#9CA3AF" stroke-width="1.5" stroke-linecap="round"/>
</svg>
