<svg width="24" height="24" viewBox="0 0 24 24" fill="none" xmlns="http://www.w3.org/2000/svg">
<path d="M5.3999 4.80005C4.60425 4.80005 3.84119 5.11612 3.27858 5.67873C2.71597 6.24134 2.3999 7.0044 2.3999 7.80005V16.2C2.3999 16.9957 2.71597 17.7588 3.27858 18.3214C3.84119 18.884 4.60425 19.2 5.3999 19.2H11.3711C11.5031 18.7668 11.7107 18.36 11.9831 18H5.3999C4.92251 18 4.46468 17.8104 4.12711 17.4728C3.78954 17.1353 3.5999 16.6774 3.5999 16.2V7.80005C3.5999 7.32266 3.78954 6.86482 4.12711 6.52726C4.46468 6.18969 4.92251 6.00005 5.3999 6.00005H18.5999C19.0773 6.00005 19.5351 6.18969 19.8727 6.52726C20.2103 6.86482 20.3999 7.32266 20.3999 7.80005V10.8036C20.8059 10.7852 21.2121 10.838 21.5999 10.9596V7.80005C21.5999 7.0044 21.2838 6.24134 20.7212 5.67873C20.1586 5.11612 19.3956 4.80005 18.5999 4.80005H5.3999ZM7.1999 8.40005C6.88164 8.40005 6.57642 8.52648 6.35137 8.75152C6.12633 8.97656 5.9999 9.28179 5.9999 9.60005C5.9999 9.91831 6.12633 10.2235 6.35137 10.4486C6.57642 10.6736 6.88164 10.8 7.1999 10.8H16.7999C17.1182 10.8 17.4234 10.6736 17.6484 10.4486C17.8735 10.2235 17.9999 9.91831 17.9999 9.60005C17.9999 9.28179 17.8735 8.97656 17.6484 8.75152C17.4234 8.52648 17.1182 8.40005 16.7999 8.40005H7.1999ZM13.1759 18.4524L18.9719 12.6564C19.393 12.2357 19.9639 11.9995 20.5592 11.9997C21.1544 11.9999 21.7252 12.2366 22.1459 12.6576C22.5666 13.0787 22.8029 13.6497 22.8027 14.2449C22.8024 14.8401 22.5658 15.4109 22.1447 15.8316L16.3487 21.6264C16.0109 21.9641 15.5879 22.2038 15.1247 22.32L13.3271 22.7688C13.1484 22.8134 12.9611 22.8109 12.7836 22.7618C12.6061 22.7126 12.4443 22.6183 12.314 22.4881C12.1837 22.3579 12.0893 22.1962 12.0399 22.0187C11.9905 21.8413 11.9879 21.654 12.0323 21.4752L12.4823 19.6776C12.5985 19.2144 12.8382 18.7914 13.1759 18.4536" fill="#9CA3AF"/>
</svg>
